<?xml version="1.0" standalone="no"?>
<!DOCTYPE svg PUBLIC "-//W3C//DTD SVG 20010904//EN"
 "http://www.w3.org/TR/2001/REC-SVG-20010904/DTD/svg10.dtd">
<svg version="1.0" xmlns="http://www.w3.org/2000/svg"
 width="704.000000pt" height="704.000000pt" viewBox="0 0 704.000000 704.000000"
 preserveAspectRatio="xMidYMid meet">
<metadata>
Created by potrace 1.14, written by Peter Selinger 2001-2017
</metadata>
<g transform="translate(0.000000,704.000000) scale(0.100000,-0.100000)"
fill="#000000" stroke="none">
<path d="M3680 7036 c0 -1 9 -29 20 -62 11 -32 21 -60 21 -61 0 -2 1 -8 3 -15
2 -7 9 -35 16 -63 7 -27 15 -57 18 -65 7 -21 7 -18 21 -85 7 -33 17 -74 22
-92 6 -17 12 -44 15 -60 3 -15 7 -35 9 -43 2 -8 7 -28 10 -45 2 -16 7 -41 10
-55 14 -65 27 -134 45 -235 10 -60 21 -126 25 -145 3 -19 8 -51 10 -70 2 -19
6 -48 9 -65 3 -16 8 -55 12 -85 3 -30 8 -66 10 -80 3 -14 7 -54 10 -90 2 -36
6 -83 9 -105 9 -91 18 -247 19 -362 0 -68 4 -123 8 -123 4 0 5 -6 3 -12 -3 -7
-7 -103 -10 -213 -3 -110 -7 -222 -9 -250 -5 -79 -17 -208 -21 -235 -2 -14 -7
-52 -10 -85 -4 -33 -8 -71 -10 -85 -3 -14 -7 -47 -10 -74 -4 -28 -8 -53 -10
-56 -2 -3 -7 -33 -10 -65 -4 -33 -9 -62 -10 -65 -2 -3 -6 -26 -10 -50 -24
-165 -167 -702 -205 -772 -14 -26 2 -30 108 -29 53 1 105 1 115 1 94 -1 168
-1 317 0 85 0 161 0 168 0 25 0 48 0 95 0 27 0 53 -2 58 -5 5 -4 9 -1 9 5 0 6
4 8 10 5 9 -6 94 -9 115 -5 6 1 14 2 19 1 4 -1 40 -2 80 -1 73 0 93 0 124 0
81 -1 149 -1 282 0 85 0 161 0 168 0 25 0 48 0 95 0 27 0 53 -2 58 -5 5 -4 9
-1 9 5 0 6 4 8 10 5 9 -6 94 -9 115 -5 6 1 14 2 19 1 4 -1 40 -2 80 -1 73 0
93 0 124 0 261 -3 431 -2 441 4 5 4 12 2 15 -3 11 -16 68 3 77 27 5 12 5 22 1
22 -4 0 -8 39 -8 88 -2 157 -20 338 -50 497 -3 17 -7 44 -10 60 -2 17 -7 41
-11 55 -3 14 -7 31 -9 39 -1 7 -8 34 -14 60 -6 25 -12 55 -15 66 -2 11 -12 47
-21 80 -9 33 -17 65 -18 70 -4 19 -39 130 -47 150 -4 11 -11 31 -15 45 -34
125 -229 562 -337 755 -62 110 -170 290 -183 303 -7 6 -16 21 -19 32 -3 11
-11 20 -16 20 -5 0 -9 5 -9 10 0 19 -282 400 -302 408 -4 2 -8 8 -8 13 0 5
-15 24 -32 43 -18 19 -41 45 -51 58 -50 65 -332 357 -442 458 -175 161 -547
440 -585 440 -6 0 -10 3 -10 8 0 4 -10 12 -23 18 -12 6 -63 32 -114 58 -97 48
-169 77 -243 96 -44 12 -130 22 -130 16z"/>
<path d="M3114 6598 c-43 -62 -81 -117 -83 -123 -2 -5 -7 -12 -11 -15 -3 -3
-42 -57 -85 -120 -43 -63 -136 -197 -207 -298 -70 -100 -128 -186 -128 -192 0
-5 -6 -13 -12 -17 -7 -4 -46 -57 -87 -118 -41 -60 -83 -121 -94 -135 -17 -22
-159 -227 -190 -274 -6 -10 -22 -31 -34 -46 -13 -15 -23 -32 -23 -37 0 -4 -11
-20 -25 -35 -14 -15 -25 -30 -25 -33 0 -3 -4 -11 -10 -18 -32 -39 -80 -108
-80 -115 0 -5 -8 -17 -17 -28 -10 -11 -27 -33 -39 -49 -59 -86 -136 -197 -175
-255 -24 -36 -47 -66 -51 -68 -5 -2 -8 -8 -8 -13 0 -6 -11 -22 -25 -37 -14
-15 -25 -31 -25 -35 0 -5 -11 -23 -25 -41 -33 -40 -34 -43 -70 -96 -16 -25
-33 -46 -37 -48 -5 -2 -8 -8 -8 -13 0 -9 -25 -48 -57 -88 -7 -9 -57 -81 -112
-161 -55 -80 -107 -152 -115 -161 -9 -9 -16 -19 -16 -22 0 -9 -73 -111 -82
-115 -5 -2 -8 -8 -8 -13 0 -5 -30 -51 -67 -103 -38 -52 -93 -131 -123 -176
-82 -120 -217 -313 -229 -327 -6 -7 -11 -16 -11 -22 0 -5 -3 -11 -7 -13 -14
-6 -66 -88 -60 -94 3 -4 18 -6 32 -5 39 2 47 2 100 1 28 -1 55 -1 60 0 6 1 14
2 19 1 4 -1 40 -2 80 -1 73 0 93 0 124 0 81 -1 149 -1 282 0 85 0 161 0 168 0
25 0 48 0 95 0 27 0 53 -2 58 -5 5 -4 9 -1 9 5 0 6 4 8 10 5 9 -6 94 -9 115
-5 6 1 14 2 19 1 4 -1 40 -2 80 -1 73 0 93 0 124 0 81 -1 149 -1 282 0 85 0
162 0 170 0 8 0 26 0 40 1 14 1 32 1 40 1 15 -1 131 -2 163 -2 9 1 46 1 82 1
36 0 71 0 78 0 6 0 43 -1 80 -2 37 -1 70 1 73 4 3 3 18 2 32 -3 15 -4 37 -4
49 1 12 4 25 4 28 -1 3 -4 17 -5 31 -1 24 6 27 12 27 54 0 26 -2 50 -5 53 -3
2 -2 21 2 42 3 20 3 49 -1 64 -4 16 -4 30 1 33 4 2 4 23 0 45 -4 22 -5 40 -1
40 7 0 5 116 -3 136 -3 7 -1 16 3 18 5 3 5 24 1 46 -4 22 -5 40 -1 40 3 0 5
35 4 77 -5 171 -5 202 1 212 4 5 2 12 -3 15 -5 3 -5 21 -1 41 4 19 4 37 0 40
-4 3 -4 21 0 40 4 19 4 37 0 40 -4 3 -4 21 0 40 4 19 4 37 0 40 -4 3 -4 21 0
40 4 19 4 37 0 40 -4 3 -4 21 0 40 4 19 4 37 0 40 -4 3 -4 21 0 40 4 19 4 37
0 40 -4 3 -4 21 0 40 4 19 4 37 0 40 -4 3 -4 21 0 40 4 19 4 37 0 40 -4 3 -4
21 0 40 4 19 4 37 0 40 -4 3 -4 21 0 40 4 19 4 37 0 40 -4 3 -4 21 0 40 4 19
4 37 0 40 -4 3 -4 21 0 40 4 19 4 37 0 40 -4 3 -4 21 0 40 4 19 4 37 0 40 -4
3 -4 21 0 40 4 20 4 38 -1 41 -5 3 -6 10 -3 16 8 13 8 284 0 297 -4 5 -2 12 3
15 4 3 5 24 1 46 -4 22 -5 40 -1 40 7 0 5 116 -3 136 -3 7 -1 16 3 18 5 3 5
24 1 46 -4 22 -5 40 -1 40 7 0 5 116 -3 136 -3 7 -1 16 3 18 5 3 5 24 1 46 -4
22 -5 40 -1 40 7 0 5 116 -3 136 -3 7 -1 16 3 18 5 3 5 24 1 46 -4 22 -5 40
-1 40 3 0 5 35 4 77 -5 171 -5 202 1 212 4 5 2 12 -3 15 -5 3 -6 21 -2 39 5
18 5 41 1 52 -4 11 -5 25 -3 32 7 18 9 113 2 113 -3 0 -41 -51 -85 -112z"/>
<path d="M365 2560 c-3 -4 -14 -6 -26 -3 -22 6 -22 7 3 -92 6 -22 10 -42 11
-45 1 -15 67 -202 86 -245 58 -129 141 -286 161 -305 3 -3 25 -34 49 -70 25
-36 65 -90 90 -120 61 -74 240 -250 291 -285 l42 -29 56 29 c31 17 59 30 62
30 10 0 185 119 220 150 19 16 70 64 112 106 l78 75 88 -85 c97 -94 98 -95
192 -163 148 -104 366 -196 510 -214 77 -10 264 -10 335 -1 116 14 282 76 430
159 76 43 181 125 273 214 l93 89 87 -85 c97 -93 98 -94 192 -162 99 -70 223
-132 340 -171 110 -36 166 -47 290 -53 41 -2 77 -4 80 -5 3 -1 10 0 15 1 6 1
26 3 45 5 83 8 160 20 168 25 1 2 5 3 10 4 44 9 190 66 251 98 94 49 201 118
201 129 0 4 9 10 19 14 11 3 65 50 120 103 l101 97 82 -80 c46 -44 101 -94
123 -110 22 -16 42 -33 45 -36 9 -10 144 -94 195 -121 88 -46 89 -46 158 13
327 279 551 637 657 1051 11 42 20 79 20 81 0 3 -11 4 -25 2 -14 -1 -25 1 -25
6 0 4 -14 4 -30 -1 -16 -5 -30 -6 -30 -2 0 4 -29 7 -65 7 -36 0 -65 -3 -65 -7
0 -4 -6 -5 -14 -2 -20 8 -116 10 -116 3 0 -4 -16 -3 -35 1 -19 4 -35 5 -35 1
0 -5 -20 -5 -45 -1 -25 4 -45 3 -45 -1 0 -4 -13 -4 -30 1 -16 5 -32 5 -35 1
-2 -4 -25 -5 -50 -1 -25 4 -45 4 -45 -1 0 -4 -16 -3 -35 1 -19 4 -35 5 -35 1
0 -5 -20 -5 -45 -1 -25 4 -45 3 -45 -1 0 -4 -13 -4 -29 1 -16 4 -32 6 -35 3
-7 -8 -101 -7 -113 0 -5 3 -15 2 -23 -3 -8 -5 -21 -5 -30 0 -9 5 -22 5 -29 0
-8 -4 -27 -4 -42 0 -16 5 -29 5 -29 0 0 -5 -13 -5 -30 0 -17 5 -30 5 -30 0 0
-5 -13 -5 -30 0 -17 5 -30 5 -30 0 0 -5 -13 -5 -30 0 -17 5 -30 5 -30 0 0 -5
-13 -5 -30 0 -17 5 -30 5 -30 0 0 -5 -13 -5 -30 0 -17 5 -30 5 -30 0 0 -5 -13
-5 -30 0 -17 5 -30 5 -30 0 0 -5 -13 -5 -30 0 -17 5 -30 5 -30 0 0 -5 -13 -5
-30 0 -17 5 -30 5 -30 0 0 -5 -13 -5 -30 0 -17 5 -30 5 -30 0 0 -5 -13 -5 -30
0 -17 5 -30 5 -30 0 0 -5 -13 -5 -30 0 -17 5 -30 5 -30 0 0 -5 -13 -5 -30 0
-17 5 -30 5 -30 0 0 -5 -13 -5 -30 0 -17 5 -30 5 -30 0 0 -5 -13 -5 -30 0 -17
5 -30 5 -30 0 0 -5 -13 -5 -30 0 -17 5 -32 5 -35 0 -3 -5 -16 -5 -30 0 -15 6
-27 6 -30 0 -3 -5 -12 -7 -20 -4 -21 8 -125 10 -125 3 0 -4 -16 -3 -35 1 -19
4 -35 5 -35 1 0 -5 -20 -5 -45 -1 -25 4 -45 3 -45 -1 0 -4 -13 -4 -30 1 -16 5
-32 5 -35 1 -2 -4 -25 -5 -50 -1 -25 4 -45 4 -45 -1 0 -4 -16 -3 -35 1 -19 4
-35 5 -35 1 0 -5 -20 -5 -45 -1 -25 4 -45 3 -45 -1 0 -4 -13 -4 -29 1 -16 4
-32 6 -35 3 -3 -4 -29 -5 -58 -4 -29 1 -59 1 -65 1 -7 0 -20 0 -28 0 -8 0 -22
0 -30 0 -8 0 -22 0 -30 0 -8 0 -22 0 -30 0 -8 0 -22 0 -30 0 -8 0 -22 0 -30 0
-8 0 -22 0 -30 0 -8 0 -22 0 -30 0 -8 0 -22 0 -30 0 -8 0 -22 0 -30 0 -8 0
-22 0 -30 0 -8 0 -22 0 -30 0 -8 0 -22 0 -30 0 -8 0 -22 0 -30 0 -8 0 -22 0
-30 0 -8 0 -22 0 -30 0 -8 0 -22 0 -30 0 -8 0 -22 0 -30 0 -8 0 -22 0 -30 0
-8 0 -21 0 -27 0 -7 1 -32 -1 -56 -2 -23 -2 -42 0 -42 4 0 4 -14 3 -30 -2 -17
-5 -30 -5 -30 0 0 5 -13 5 -30 0 -17 -5 -30 -5 -30 0 0 5 -13 5 -30 0 -17 -5
-30 -5 -30 0 0 5 -13 5 -30 0 -17 -5 -30 -5 -30 0 0 5 -13 5 -30 0 -17 -5 -30
-6 -30 -2 0 4 -29 7 -65 7 -36 0 -65 -3 -65 -7 0 -4 -6 -5 -14 -2 -20 8 -116
10 -116 3 0 -4 -16 -3 -35 1 -19 4 -35 5 -35 1 0 -5 -20 -5 -45 -1 -25 4 -45
3 -45 -1 0 -4 -13 -4 -30 1 -16 5 -32 5 -35 1 -2 -4 -25 -5 -50 -1 -25 4 -45
4 -45 -1 0 -4 -16 -3 -35 1 -19 4 -35 5 -35 1 0 -5 -20 -5 -45 -1 -25 4 -45 3
-45 -1 0 -4 -13 -4 -29 1 -16 4 -32 6 -35 3 -7 -8 -101 -7 -113 0 -5 3 -15 2
-23 -3 -8 -5 -21 -5 -30 0 -9 5 -22 5 -29 0 -8 -4 -27 -4 -42 0 -16 5 -29 5
-29 0 0 -5 -13 -5 -30 0 -17 5 -30 5 -30 0 0 -5 -13 -5 -30 0 -17 5 -30 5 -30
0 0 -5 -13 -5 -30 0 -17 5 -30 5 -30 0 0 -5 -13 -5 -30 0 -17 5 -30 5 -30 0 0
-5 -13 -5 -30 0 -17 5 -30 5 -30 0 0 -5 -13 -5 -30 0 -17 5 -30 5 -30 0 0 -5
-13 -5 -30 0 -17 5 -30 5 -30 0 0 -5 -13 -5 -30 0 -17 5 -30 5 -30 0 0 -5 -13
-5 -30 0 -17 5 -30 5 -30 0 0 -5 -13 -5 -30 0 -17 5 -30 5 -30 0 0 -5 -13 -5
-30 0 -17 5 -30 5 -30 0 0 -5 -13 -5 -30 0 -17 5 -30 5 -30 0 0 -5 -13 -5 -30
0 -17 5 -30 5 -30 0 0 -5 -13 -5 -30 0 -17 5 -30 5 -30 0 0 -5 -13 -5 -30 0
-17 5 -32 5 -35 0 -3 -5 -16 -5 -30 0 -15 6 -27 6 -30 0 -3 -5 -12 -7 -20 -4
-21 8 -125 10 -125 3 0 -4 -16 -3 -35 1 -19 4 -35 5 -35 1 0 -5 -20 -5 -45 -1
-25 4 -45 3 -45 -1 0 -4 -13 -4 -30 1 -16 5 -32 5 -35 0z"/>
<path d="M1565 937 c-45 -34 -151 -97 -164 -97 -6 0 -11 -4 -11 -10 0 -5 -3
-9 -7 -8 -5 0 -42 -15 -84 -35 -172 -80 -385 -134 -566 -142 -40 -2 -77 -6
-82 -9 -5 -4 -12 -2 -16 3 -3 6 -15 7 -28 2 -12 -5 -31 -5 -43 -1 -11 5 -27 5
-34 0 -7 -4 -24 -4 -39 0 -14 4 -35 4 -46 0 -11 -4 -29 -4 -41 0 -11 5 -26 5
-33 0 -7 -4 -22 -5 -32 -3 -18 5 -19 -6 -19 -317 l0 -322 262 5 c145 3 279 7
298 11 19 3 53 8 75 11 45 6 80 13 80 15 0 1 12 3 26 5 14 2 45 9 70 15 24 7
49 13 54 15 43 9 72 19 83 28 6 5 12 7 12 4 0 -8 187 66 259 102 l61 31 60
-30 c134 -68 335 -137 475 -165 169 -33 246 -40 435 -40 185 0 233 5 415 41
145 29 343 97 475 164 l60 30 60 -30 c124 -63 350 -142 475 -166 44 -9 132
-24 175 -30 66 -9 405 -10 479 -1 88 11 166 23 166 27 0 1 11 3 25 5 59 8 255
65 292 86 10 5 23 9 28 9 6 0 55 21 108 46 53 26 104 46 112 46 8 0 53 -18
100 -40 83 -38 115 -51 125 -52 3 0 22 -7 43 -16 60 -25 145 -51 267 -79 26
-6 120 -23 170 -30 22 -4 160 -9 308 -12 l267 -5 -2 318 -3 319 -30 5 c-16 3
-45 3 -63 -1 -17 -4 -34 -3 -37 2 -3 4 -16 4 -29 -1 -12 -4 -29 -5 -36 0 -7 4
-25 4 -41 0 -15 -5 -30 -6 -32 -4 -3 3 -54 7 -113 9 -60 3 -120 6 -134 8 -182
28 -330 73 -490 150 -85 41 -201 106 -210 118 -3 3 -18 13 -34 21 -28 15 -31
13 -115 -39 -47 -30 -124 -73 -171 -95 -87 -41 -280 -111 -280 -102 0 2 -8 0
-18 -5 -10 -5 -36 -12 -57 -15 -22 -4 -68 -12 -102 -20 -71 -14 -375 -19 -443
-6 -25 5 -65 11 -90 15 -24 4 -48 8 -51 11 -4 2 -24 6 -44 10 -99 15 -385 136
-484 203 -17 12 -45 30 -62 42 l-30 20 -32 -23 c-52 -39 -271 -159 -297 -164
-3 0 -12 -3 -20 -7 -48 -19 -194 -67 -217 -71 -15 -2 -28 -5 -28 -6 0 -3 -89
-18 -215 -36 -48 -6 -233 -6 -300 1 -116 12 -239 39 -354 76 -115 38 -297 122
-367 170 -65 44 -88 59 -91 59 -2 0 -16 -10 -33 -23z"/>
</g>
</svg>
